<svg xmlns="http://www.w3.org/2000/svg" viewBox="0 0 120 120" width="1024" height="1024">
  <defs>
    <linearGradient id="tile" x1="0" y1="0" x2="1" y2="1">
      <stop offset="0" stop-color="#123B34"/>
      <stop offset="1" stop-color="#0A211D"/>
    </linearGradient>
    <radialGradient id="glow" cx="0.3" cy="0.18" r="0.85">
      <stop offset="0" stop-color="rgba(127,184,166,0.22)"/>
      <stop offset="1" stop-color="rgba(127,184,166,0)"/>
    </radialGradient>
    <mask id="slits" maskUnits="userSpaceOnUse" x="-24" y="0" width="160" height="64">
      <rect x="-24" y="0" width="160" height="64" fill="#fff"/>
      <rect x="-24" y="17" width="86" height="1.6" fill="#000"/>
      <rect x="-24" y="19.9" width="80" height="1.5" fill="#000"/>
    </mask>
  </defs>
  <rect x="2" y="2" width="116" height="116" rx="27" fill="url(#tile)"/>
  <rect x="2" y="2" width="116" height="116" rx="27" fill="url(#glow)"/>
  <rect x="3.5" y="3.5" width="113" height="113" rx="25.5" fill="none" stroke="rgba(127,184,166,0.4)" stroke-width="2.2"/>
  <g transform="translate(14.5 37.4) scale(0.85)">
    <g stroke="#7FB8A6" stroke-linecap="round" fill="none">
      <line x1="-13" y1="17.8" x2="68" y2="17.8" stroke-width="1.7"/>
      <line x1="-9" y1="20.65" x2="62" y2="20.65" stroke-width="1.6"/>
      <line x1="-14" y1="23.5" x2="18.5" y2="23.5" stroke-width="1.6"/>
      <line x1="-5" y1="27.2" x2="46" y2="27.2" stroke-width="1.5"/>
    </g>
    <path mask="url(#slits)" fill="#F0E5C6" d="M121 24.2
      C117.5 23.1 114 22.1 110.5 21.2 C109.2 20.8 107.6 20.3 106.3 20.2 C105.6 20.1 105.2 20 104.8 20
      C104 19.2 103.2 18.7 102.4 18.8 C101.6 18.9 100.9 19.4 100 19.9
      C96.5 20.1 93 19.4 89.5 18.6 C86.5 18 84.2 17.7 82 17.6 C78.5 17.35 75.5 17.1 72.5 16.8
      C68.5 16.35 64.5 15.95 61.5 16.05 C58.5 16.35 55.8 17 53.5 17.9 C52.2 18.4 51 18.9 50 19.4
      C47 20.6 43.8 21.6 40.5 22.35 C36.5 23.2 31.5 23.45 26.8 23.35 C24.5 23.3 22.5 23 20.9 22.65
      C20.3 22.55 20.2 23.2 20.75 23.4 C24.4 24.4 28.8 24.75 33 24.65 C37.5 24.55 41.5 24 44.8 23.2
      C45.8 22.95 46.7 22.68 47.5 22.4 C45.9 23.5 44.3 24.6 43 25.5 C41.3 26.8 39.7 27.9 38.5 29
      C36.6 30.6 34.8 32 33 33.2 C31.6 34.3 30.3 35.3 29.2 36.2 C28.5 36.8 28.5 37.35 29.3 37.25
      C31.5 35.9 33.8 34.3 36 32.6 C38.8 30.4 41.6 28.2 44 26 C44.9 25.2 45.7 24.7 46.5 24.4
      C44.9 26.3 43.2 28.5 41.8 30.4 C40.4 32.2 38.9 33.5 37.4 34.6 C36.2 35.9 35.1 37.2 34.2 38.6
      C33.6 39.3 33.8 39.85 34.7 39.6 C36.4 38.2 38 36.6 39.6 34.9 C42.4 31.9 45 29.2 47.5 27.2
      C48.7 26.3 49.9 25.4 51 24.6 C54 22.5 57 21.6 60 21.55 C63 21.5 66 22.3 68.5 23.4
      C72 25 75.8 27.6 78.5 29.8 C79.3 30.4 80.2 30.7 81 30.6 C83.4 31.6 86 32.6 88.4 33.8
      C90.8 34.9 93.2 35.9 95.6 36.9 C97.1 37.5 98.4 38 99.6 38.3 C100.5 38.5 100.7 37.9 100 37.5
      C97.4 36.1 94.6 34.7 92 33.2 C90 32.05 88.2 30.9 86.6 29.7 C86.3 29.45 86.05 29.2 85.8 29
      C88.6 30 92 31 95.5 31.9 C99.5 32.9 103.5 33.6 107.5 34.1 C109.5 34.35 111.2 34.5 112.6 34.55
      C113.7 34.6 113.9 33.9 113.1 33.55 C109.5 32.6 105.5 31.7 101.5 30.8 C97 29.75 92.5 28.3 88.5 26.4
      C89.5 25.6 90.8 24.9 92.5 24.3 C95.5 23.3 99 22.75 102.5 22.7 C106.5 22.65 110.5 23 114 23.4
      C116.8 23.7 119.2 23.95 121 24.2 Z"/>
    <circle cx="110.2" cy="22.35" r="0.75" fill="#0A211D" opacity="0.85"/>
  </g>
</svg>
