<svg xmlns="http://www.w3.org/2000/svg" viewBox="0 0 120 120" width="1024" height="1024">
  <defs>
    <linearGradient id="whale" x1="0" y1="0" x2="1" y2="1">
      <stop offset="0" stop-color="#c67139"/>
      <stop offset="1" stop-color="#b2622d"/>
    </linearGradient>
    <linearGradient id="badge" x1="0" y1="0" x2="1" y2="1">
      <stop offset="0" stop-color="#2a2018"/>
      <stop offset="1" stop-color="#22190f"/>
    </linearGradient>
    <radialGradient id="glow" cx="0.5" cy="0.32" r="0.7">
      <stop offset="0" stop-color="rgba(198,113,57,0.24)"/>
      <stop offset="1" stop-color="rgba(198,113,57,0)"/>
    </radialGradient>
  </defs>
  <rect x="2" y="2" width="116" height="116" rx="27" fill="url(#badge)"/>
  <rect x="2" y="2" width="116" height="116" rx="27" fill="url(#glow)"/>
  <rect x="3.5" y="3.5" width="113" height="113" rx="25.5" fill="none" stroke="rgba(198,113,57,0.55)" stroke-width="2.4"/>
  <path d="M26 57 C23 39 42 30 61 33 C77 35 86 44 91 53 C95 48 101 45 106 42
           C104 52 100 58 93 60 C89 71 73 77 56 76 C37 75 29 69 26 57 Z" fill="url(#whale)"/>
  <circle cx="45" cy="51" r="3" fill="#f5ead8"/>
  <g fill="none" stroke="#7a8a5e" stroke-width="4.6" stroke-linecap="round" opacity="0.95">
    <path d="M20 85 q13 -11 26 0 q13 11 26 0 q13 -11 26 0"/>
    <path d="M27 97 q13 -9 26 0 q13 9 26 0" opacity="0.5"/>
  </g>
</svg>
